<?xml version="1.0" encoding="utf-8" standalone="no"?>
<!DOCTYPE svg PUBLIC "-//W3C//DTD SVG 1.1//EN"
  "http://www.w3.org/Graphics/SVG/1.1/DTD/svg11.dtd">
<svg xmlns:xlink="http://www.w3.org/1999/xlink" width="684pt" height="408.752875pt" viewBox="0 0 684 408.752875" xmlns="http://www.w3.org/2000/svg" version="1.1">
 <metadata>
  <rdf:RDF xmlns:dc="http://purl.org/dc/elements/1.1/" xmlns:cc="http://creativecommons.org/ns#" xmlns:rdf="http://www.w3.org/1999/02/22-rdf-syntax-ns#">
   <cc:Work>
    <dc:type rdf:resource="http://purl.org/dc/dcmitype/StillImage"/>
    <dc:date>2025-08-09T16:31:58.906158</dc:date>
    <dc:format>image/svg+xml</dc:format>
    <dc:creator>
     <cc:Agent>
      <dc:title>Matplotlib v3.6.3, https://matplotlib.org/</dc:title>
     </cc:Agent>
    </dc:creator>
   </cc:Work>
  </rdf:RDF>
 </metadata>
 <defs>
  <style type="text/css">*{stroke-linejoin: round; stroke-linecap: butt}</style>
 </defs>
 <g id="figure_1">
  <g id="patch_1">
   <path d="M 0 408.752875 
L 684 408.752875 
L 684 -0 
L 0 -0 
z
" style="fill: #ffffff"/>
  </g>
  <g id="axes_1">
   <g id="patch_2">
    <path d="M 32.953846 86.237875 
L 161.723077 86.237875 
L 161.723077 37.727875 
L 32.953846 37.727875 
z
" clip-path="url(#pe7b502fdf8)" style="fill: #d1e7dd; stroke: #000000; stroke-width: 2; stroke-linejoin: miter"/>
   </g>
   <g id="patch_3">
    <path d="M 213.230769 86.237875 
L 342 86.237875 
L 342 37.727875 
L 213.230769 37.727875 
z
" clip-path="url(#pe7b502fdf8)" style="fill: #cff4fc; stroke: #000000; stroke-width: 2; stroke-linejoin: miter"/>
   </g>
   <g id="patch_4">
    <path d="M 393.507692 86.237875 
L 522.276923 86.237875 
L 522.276923 37.727875 
L 393.507692 37.727875 
z
" clip-path="url(#pe7b502fdf8)" style="fill: #fff3cd; stroke: #000000; stroke-width: 2; stroke-linejoin: miter"/>
   </g>
   <g id="patch_5">
    <path d="M 393.507692 163.853875 
L 522.276923 163.853875 
L 522.276923 115.343875 
L 393.507692 115.343875 
z
" clip-path="url(#pe7b502fdf8)" style="fill: #f8d7da; stroke: #000000; stroke-width: 2; stroke-linejoin: miter"/>
   </g>
   <g id="patch_6">
    <path d="M 290.492308 241.469875 
L 419.261538 241.469875 
L 419.261538 192.959875 
L 290.492308 192.959875 
z
" clip-path="url(#pe7b502fdf8)" style="fill: #e2e3e5; stroke: #000000; stroke-width: 2; stroke-linejoin: miter"/>
   </g>
   <g id="patch_7">
    <path d="M 496.523077 241.469875 
L 625.292308 241.469875 
L 625.292308 192.959875 
L 496.523077 192.959875 
z
" clip-path="url(#pe7b502fdf8)" style="fill: #d1c4e9; stroke: #000000; stroke-width: 2; stroke-linejoin: miter"/>
   </g>
   <g id="patch_8">
    <path d="M 393.507692 319.085875 
L 522.276923 319.085875 
L 522.276923 270.575875 
L 393.507692 270.575875 
z
" clip-path="url(#pe7b502fdf8)" style="fill: #ffe0b2; stroke: #000000; stroke-width: 2; stroke-linejoin: miter"/>
   </g>
   <g id="patch_9">
    <path d="M 393.507692 386.999875 
L 522.276923 386.999875 
L 522.276923 338.489875 
L 393.507692 338.489875 
z
" clip-path="url(#pe7b502fdf8)" style="fill: #bbdefb; stroke: #000000; stroke-width: 2; stroke-linejoin: miter"/>
   </g>
   <g id="patch_10">
    <path d="M 32.953846 246.320875 
L 161.723077 246.320875 
L 161.723077 197.810875 
L 32.953846 197.810875 
z
" clip-path="url(#pe7b502fdf8)" style="fill: #f0f0f0; stroke: #000000; stroke-width: 2; stroke-linejoin: miter"/>
   </g>
   <g id="patch_11">
    <path d="M 32.953846 323.936875 
L 161.723077 323.936875 
L 161.723077 275.426875 
L 32.953846 275.426875 
z
" clip-path="url(#pe7b502fdf8)" style="fill: #f0f0f0; stroke: #000000; stroke-width: 2; stroke-linejoin: miter"/>
   </g>
   <g id="patch_12">
    <path d="M 563.483077 386.999875 
L 666.498462 386.999875 
L 666.498462 338.489875 
L 563.483077 338.489875 
z
" clip-path="url(#pe7b502fdf8)" style="fill: #c8e6c9; stroke: #000000; stroke-width: 2; stroke-linejoin: miter"/>
   </g>
   <g id="patch_13">
    <path d="M 213.230769 61.982875 
L 192.627692 69.259375 
L 192.627692 62.953075 
L 161.723077 62.953075 
L 161.723077 61.012675 
L 192.627692 61.012675 
L 192.627692 54.706375 
z
" clip-path="url(#pe7b502fdf8)" style="stroke: #000000; stroke-linejoin: miter"/>
   </g>
   <g id="patch_14">
    <path d="M 393.507692 61.982875 
L 372.904615 69.259375 
L 372.904615 62.953075 
L 342 62.953075 
L 342 61.012675 
L 372.904615 61.012675 
L 372.904615 54.706375 
z
" clip-path="url(#pe7b502fdf8)" style="stroke: #000000; stroke-linejoin: miter"/>
   </g>
   <g id="patch_15">
    <path d="M 460.467692 115.343875 
L 452.741538 95.939875 
L 459.437538 95.939875 
L 459.437538 86.237875 
L 461.497846 86.237875 
L 461.497846 95.939875 
L 468.193846 95.939875 
z
" clip-path="url(#pe7b502fdf8)" style="stroke: #000000; stroke-linejoin: miter"/>
   </g>
   <g id="patch_16">
    <path d="M 357.452308 192.959875 
L 374.966382 180.414554 
L 376.890464 186.454894 
L 460.17168 162.924592 
L 460.763705 164.783158 
L 377.482489 188.31346 
L 379.40657 194.3538 
z
" clip-path="url(#pe7b502fdf8)" style="fill: #6c757d; stroke: #6c757d; stroke-linejoin: miter"/>
   </g>
   <g id="patch_17">
    <path d="M 563.483077 192.959875 
L 542.364923 187.138675 
L 546.382523 182.093635 
L 521.658831 164.630035 
L 522.895015 163.077715 
L 547.618708 180.541315 
L 551.636308 175.496275 
z
" clip-path="url(#pe7b502fdf8)" style="fill: #6a1b9a; stroke: #6a1b9a; stroke-linejoin: miter"/>
   </g>
   <g id="patch_18">
    <path d="M 460.467692 270.575875 
L 438.51343 271.9698 
L 440.437511 265.92946 
L 357.156295 242.399158 
L 357.74832 240.540592 
L 441.029536 264.070894 
L 442.953618 258.030554 
z
" clip-path="url(#pe7b502fdf8)" style="fill: #6c757d; stroke: #6c757d; stroke-linejoin: miter"/>
   </g>
   <g id="patch_19">
    <path d="M 511.975385 270.575875 
L 525.667304 254.353052 
L 529.112368 259.76066 
L 562.953067 240.637935 
L 564.013087 242.301815 
L 530.172387 261.424539 
L 533.617451 266.832147 
z
" clip-path="url(#pe7b502fdf8)" style="fill: #6a1b9a; stroke: #6a1b9a; stroke-linejoin: miter"/>
   </g>
   <g id="patch_20">
    <path d="M 460.467692 338.489875 
L 452.741538 319.085875 
L 459.437538 319.085875 
L 459.437538 319.085875 
L 461.497846 319.085875 
L 461.497846 319.085875 
L 468.193846 319.085875 
z
" clip-path="url(#pe7b502fdf8)" style="stroke: #000000; stroke-linejoin: miter"/>
   </g>
   <g id="patch_21">
    <path d="M 563.483077 362.744875 
L 542.88 370.021375 
L 542.88 363.715075 
L 522.276923 363.715075 
L 522.276923 361.774675 
L 542.88 361.774675 
L 542.88 355.468375 
z
" clip-path="url(#pe7b502fdf8)" style="stroke: #000000; stroke-linejoin: miter"/>
   </g>
   <g id="patch_22">
    <path d="M 393.507692 61.982875 
L 381.27054 79.206054 
L 377.367389 74.081944 
L 157.172792 222.8542 
L 155.971823 221.27755 
L 376.166419 72.505295 
L 372.263268 67.381185 
z
" clip-path="url(#pe7b502fdf8)" style="stroke: #000000; stroke-linejoin: miter"/>
   </g>
   <g id="patch_23">
    <path d="M 393.507692 362.744875 
L 371.579976 364.470066 
L 373.401 358.401454 
L 156.29215 300.615508 
L 156.852465 298.748242 
L 373.961315 356.534189 
L 375.782339 350.465577 
z
" clip-path="url(#pe7b502fdf8)" style="stroke: #000000; stroke-linejoin: miter"/>
   </g>
   <g id="text_1">
    <!-- Intake -->
    <g style="fill: #333333" transform="translate(81.879868 59.143344) scale(0.1 -0.1)">
     <defs>
      <path id="DejaVuSans-49" d="M 628 4666 
L 1259 4666 
L 1259 0 
L 628 0 
L 628 4666 
z
" transform="scale(0.015625)"/>
      <path id="DejaVuSans-6e" d="M 3513 2113 
L 3513 0 
L 2938 0 
L 2938 2094 
Q 2938 2591 2744 2837 
Q 2550 3084 2163 3084 
Q 1697 3084 1428 2787 
Q 1159 2491 1159 1978 
L 1159 0 
L 581 0 
L 581 3500 
L 1159 3500 
L 1159 2956 
Q 1366 3272 1645 3428 
Q 1925 3584 2291 3584 
Q 2894 3584 3203 3211 
Q 3513 2838 3513 2113 
z
" transform="scale(0.015625)"/>
      <path id="DejaVuSans-74" d="M 1172 4494 
L 1172 3500 
L 2356 3500 
L 2356 3053 
L 1172 3053 
L 1172 1153 
Q 1172 725 1289 603 
Q 1406 481 1766 481 
L 2356 481 
L 2356 0 
L 1766 0 
Q 1100 0 847 248 
Q 594 497 594 1153 
L 594 3053 
L 172 3053 
L 172 3500 
L 594 3500 
L 594 4494 
L 1172 4494 
z
" transform="scale(0.015625)"/>
      <path id="DejaVuSans-61" d="M 2194 1759 
Q 1497 1759 1228 1600 
Q 959 1441 959 1056 
Q 959 750 1161 570 
Q 1363 391 1709 391 
Q 2188 391 2477 730 
Q 2766 1069 2766 1631 
L 2766 1759 
L 2194 1759 
z
M 3341 1997 
L 3341 0 
L 2766 0 
L 2766 531 
Q 2569 213 2275 61 
Q 1981 -91 1556 -91 
Q 1019 -91 701 211 
Q 384 513 384 1019 
Q 384 1609 779 1909 
Q 1175 2209 1959 2209 
L 2766 2209 
L 2766 2266 
Q 2766 2663 2505 2880 
Q 2244 3097 1772 3097 
Q 1472 3097 1187 3025 
Q 903 2953 641 2809 
L 641 3341 
Q 956 3463 1253 3523 
Q 1550 3584 1831 3584 
Q 2591 3584 2966 3190 
Q 3341 2797 3341 1997 
z
" transform="scale(0.015625)"/>
      <path id="DejaVuSans-6b" d="M 581 4863 
L 1159 4863 
L 1159 1991 
L 2875 3500 
L 3609 3500 
L 1753 1863 
L 3688 0 
L 2938 0 
L 1159 1709 
L 1159 0 
L 581 0 
L 581 4863 
z
" transform="scale(0.015625)"/>
      <path id="DejaVuSans-65" d="M 3597 1894 
L 3597 1613 
L 953 1613 
Q 991 1019 1311 708 
Q 1631 397 2203 397 
Q 2534 397 2845 478 
Q 3156 559 3463 722 
L 3463 178 
Q 3153 47 2828 -22 
Q 2503 -91 2169 -91 
Q 1331 -91 842 396 
Q 353 884 353 1716 
Q 353 2575 817 3079 
Q 1281 3584 2069 3584 
Q 2775 3584 3186 3129 
Q 3597 2675 3597 1894 
z
M 3022 2063 
Q 3016 2534 2758 2815 
Q 2500 3097 2075 3097 
Q 1594 3097 1305 2825 
Q 1016 2553 972 2059 
L 3022 2063 
z
" transform="scale(0.015625)"/>
     </defs>
     <use xlink:href="#DejaVuSans-49"/>
     <use xlink:href="#DejaVuSans-6e" x="29.492188"/>
     <use xlink:href="#DejaVuSans-74" x="92.871094"/>
     <use xlink:href="#DejaVuSans-61" x="132.080078"/>
     <use xlink:href="#DejaVuSans-6b" x="193.359375"/>
     <use xlink:href="#DejaVuSans-65" x="247.644531"/>
    </g>
    <!-- (Email / Folder) -->
    <g style="fill: #333333" transform="translate(59.253305 70.341156) scale(0.1 -0.1)">
     <defs>
      <path id="DejaVuSans-28" d="M 1984 4856 
Q 1566 4138 1362 3434 
Q 1159 2731 1159 2009 
Q 1159 1288 1364 580 
Q 1569 -128 1984 -844 
L 1484 -844 
Q 1016 -109 783 600 
Q 550 1309 550 2009 
Q 550 2706 781 3412 
Q 1013 4119 1484 4856 
L 1984 4856 
z
" transform="scale(0.015625)"/>
      <path id="DejaVuSans-45" d="M 628 4666 
L 3578 4666 
L 3578 4134 
L 1259 4134 
L 1259 2753 
L 3481 2753 
L 3481 2222 
L 1259 2222 
L 1259 531 
L 3634 531 
L 3634 0 
L 628 0 
L 628 4666 
z
" transform="scale(0.015625)"/>
      <path id="DejaVuSans-6d" d="M 3328 2828 
Q 3544 3216 3844 3400 
Q 4144 3584 4550 3584 
Q 5097 3584 5394 3201 
Q 5691 2819 5691 2113 
L 5691 0 
L 5113 0 
L 5113 2094 
Q 5113 2597 4934 2840 
Q 4756 3084 4391 3084 
Q 3944 3084 3684 2787 
Q 3425 2491 3425 1978 
L 3425 0 
L 2847 0 
L 2847 2094 
Q 2847 2600 2669 2842 
Q 2491 3084 2119 3084 
Q 1678 3084 1418 2786 
Q 1159 2488 1159 1978 
L 1159 0 
L 581 0 
L 581 3500 
L 1159 3500 
L 1159 2956 
Q 1356 3278 1631 3431 
Q 1906 3584 2284 3584 
Q 2666 3584 2933 3390 
Q 3200 3197 3328 2828 
z
" transform="scale(0.015625)"/>
      <path id="DejaVuSans-69" d="M 603 3500 
L 1178 3500 
L 1178 0 
L 603 0 
L 603 3500 
z
M 603 4863 
L 1178 4863 
L 1178 4134 
L 603 4134 
L 603 4863 
z
" transform="scale(0.015625)"/>
      <path id="DejaVuSans-6c" d="M 603 4863 
L 1178 4863 
L 1178 0 
L 603 0 
L 603 4863 
z
" transform="scale(0.015625)"/>
      <path id="DejaVuSans-20" transform="scale(0.015625)"/>
      <path id="DejaVuSans-2f" d="M 1625 4666 
L 2156 4666 
L 531 -594 
L 0 -594 
L 1625 4666 
z
" transform="scale(0.015625)"/>
      <path id="DejaVuSans-46" d="M 628 4666 
L 3309 4666 
L 3309 4134 
L 1259 4134 
L 1259 2759 
L 3109 2759 
L 3109 2228 
L 1259 2228 
L 1259 0 
L 628 0 
L 628 4666 
z
" transform="scale(0.015625)"/>
      <path id="DejaVuSans-6f" d="M 1959 3097 
Q 1497 3097 1228 2736 
Q 959 2375 959 1747 
Q 959 1119 1226 758 
Q 1494 397 1959 397 
Q 2419 397 2687 759 
Q 2956 1122 2956 1747 
Q 2956 2369 2687 2733 
Q 2419 3097 1959 3097 
z
M 1959 3584 
Q 2709 3584 3137 3096 
Q 3566 2609 3566 1747 
Q 3566 888 3137 398 
Q 2709 -91 1959 -91 
Q 1206 -91 779 398 
Q 353 888 353 1747 
Q 353 2609 779 3096 
Q 1206 3584 1959 3584 
z
" transform="scale(0.015625)"/>
      <path id="DejaVuSans-64" d="M 2906 2969 
L 2906 4863 
L 3481 4863 
L 3481 0 
L 2906 0 
L 2906 525 
Q 2725 213 2448 61 
Q 2172 -91 1784 -91 
Q 1150 -91 751 415 
Q 353 922 353 1747 
Q 353 2572 751 3078 
Q 1150 3584 1784 3584 
Q 2172 3584 2448 3432 
Q 2725 3281 2906 2969 
z
M 947 1747 
Q 947 1113 1208 752 
Q 1469 391 1925 391 
Q 2381 391 2643 752 
Q 2906 1113 2906 1747 
Q 2906 2381 2643 2742 
Q 2381 3103 1925 3103 
Q 1469 3103 1208 2742 
Q 947 2381 947 1747 
z
" transform="scale(0.015625)"/>
      <path id="DejaVuSans-72" d="M 2631 2963 
Q 2534 3019 2420 3045 
Q 2306 3072 2169 3072 
Q 1681 3072 1420 2755 
Q 1159 2438 1159 1844 
L 1159 0 
L 581 0 
L 581 3500 
L 1159 3500 
L 1159 2956 
Q 1341 3275 1631 3429 
Q 1922 3584 2338 3584 
Q 2397 3584 2469 3576 
Q 2541 3569 2628 3553 
L 2631 2963 
z
" transform="scale(0.015625)"/>
      <path id="DejaVuSans-29" d="M 513 4856 
L 1013 4856 
Q 1481 4119 1714 3412 
Q 1947 2706 1947 2009 
Q 1947 1309 1714 600 
Q 1481 -109 1013 -844 
L 513 -844 
Q 928 -128 1133 580 
Q 1338 1288 1338 2009 
Q 1338 2731 1133 3434 
Q 928 4138 513 4856 
z
" transform="scale(0.015625)"/>
     </defs>
     <use xlink:href="#DejaVuSans-28"/>
     <use xlink:href="#DejaVuSans-45" x="39.013672"/>
     <use xlink:href="#DejaVuSans-6d" x="102.197266"/>
     <use xlink:href="#DejaVuSans-61" x="199.609375"/>
     <use xlink:href="#DejaVuSans-69" x="260.888672"/>
     <use xlink:href="#DejaVuSans-6c" x="288.671875"/>
     <use xlink:href="#DejaVuSans-20" x="316.455078"/>
     <use xlink:href="#DejaVuSans-2f" x="348.242188"/>
     <use xlink:href="#DejaVuSans-20" x="381.933594"/>
     <use xlink:href="#DejaVuSans-46" x="413.720703"/>
     <use xlink:href="#DejaVuSans-6f" x="467.615234"/>
     <use xlink:href="#DejaVuSans-6c" x="528.796875"/>
     <use xlink:href="#DejaVuSans-64" x="556.580078"/>
     <use xlink:href="#DejaVuSans-65" x="620.056641"/>
     <use xlink:href="#DejaVuSans-72" x="681.580078"/>
     <use xlink:href="#DejaVuSans-29" x="722.693359"/>
    </g>
   </g>
   <g id="text_2">
    <!-- Classify -->
    <g style="fill: #333333" transform="translate(258.440385 59.143344) scale(0.1 -0.1)">
     <defs>
      <path id="DejaVuSans-43" d="M 4122 4306 
L 4122 3641 
Q 3803 3938 3442 4084 
Q 3081 4231 2675 4231 
Q 1875 4231 1450 3742 
Q 1025 3253 1025 2328 
Q 1025 1406 1450 917 
Q 1875 428 2675 428 
Q 3081 428 3442 575 
Q 3803 722 4122 1019 
L 4122 359 
Q 3791 134 3420 21 
Q 3050 -91 2638 -91 
Q 1578 -91 968 557 
Q 359 1206 359 2328 
Q 359 3453 968 4101 
Q 1578 4750 2638 4750 
Q 3056 4750 3426 4639 
Q 3797 4528 4122 4306 
z
" transform="scale(0.015625)"/>
      <path id="DejaVuSans-73" d="M 2834 3397 
L 2834 2853 
Q 2591 2978 2328 3040 
Q 2066 3103 1784 3103 
Q 1356 3103 1142 2972 
Q 928 2841 928 2578 
Q 928 2378 1081 2264 
Q 1234 2150 1697 2047 
L 1894 2003 
Q 2506 1872 2764 1633 
Q 3022 1394 3022 966 
Q 3022 478 2636 193 
Q 2250 -91 1575 -91 
Q 1294 -91 989 -36 
Q 684 19 347 128 
L 347 722 
Q 666 556 975 473 
Q 1284 391 1588 391 
Q 1994 391 2212 530 
Q 2431 669 2431 922 
Q 2431 1156 2273 1281 
Q 2116 1406 1581 1522 
L 1381 1569 
Q 847 1681 609 1914 
Q 372 2147 372 2553 
Q 372 3047 722 3315 
Q 1072 3584 1716 3584 
Q 2034 3584 2315 3537 
Q 2597 3491 2834 3397 
z
" transform="scale(0.015625)"/>
      <path id="DejaVuSans-66" d="M 2375 4863 
L 2375 4384 
L 1825 4384 
Q 1516 4384 1395 4259 
Q 1275 4134 1275 3809 
L 1275 3500 
L 2222 3500 
L 2222 3053 
L 1275 3053 
L 1275 0 
L 697 0 
L 697 3053 
L 147 3053 
L 147 3500 
L 697 3500 
L 697 3744 
Q 697 4328 969 4595 
Q 1241 4863 1831 4863 
L 2375 4863 
z
" transform="scale(0.015625)"/>
      <path id="DejaVuSans-79" d="M 2059 -325 
Q 1816 -950 1584 -1140 
Q 1353 -1331 966 -1331 
L 506 -1331 
L 506 -850 
L 844 -850 
Q 1081 -850 1212 -737 
Q 1344 -625 1503 -206 
L 1606 56 
L 191 3500 
L 800 3500 
L 1894 763 
L 2988 3500 
L 3597 3500 
L 2059 -325 
z
" transform="scale(0.015625)"/>
     </defs>
     <use xlink:href="#DejaVuSans-43"/>
     <use xlink:href="#DejaVuSans-6c" x="69.824219"/>
     <use xlink:href="#DejaVuSans-61" x="97.607422"/>
     <use xlink:href="#DejaVuSans-73" x="158.886719"/>
     <use xlink:href="#DejaVuSans-73" x="210.986328"/>
     <use xlink:href="#DejaVuSans-69" x="263.085938"/>
     <use xlink:href="#DejaVuSans-66" x="290.869141"/>
     <use xlink:href="#DejaVuSans-79" x="324.324219"/>
    </g>
    <!-- (Keyword Rules) -->
    <g style="fill: #333333" transform="translate(237.28101 70.341156) scale(0.1 -0.1)">
     <defs>
      <path id="DejaVuSans-4b" d="M 628 4666 
L 1259 4666 
L 1259 2694 
L 3353 4666 
L 4166 4666 
L 1850 2491 
L 4331 0 
L 3500 0 
L 1259 2247 
L 1259 0 
L 628 0 
L 628 4666 
z
" transform="scale(0.015625)"/>
      <path id="DejaVuSans-77" d="M 269 3500 
L 844 3500 
L 1563 769 
L 2278 3500 
L 2956 3500 
L 3675 769 
L 4391 3500 
L 4966 3500 
L 4050 0 
L 3372 0 
L 2619 2869 
L 1863 0 
L 1184 0 
L 269 3500 
z
" transform="scale(0.015625)"/>
      <path id="DejaVuSans-52" d="M 2841 2188 
Q 3044 2119 3236 1894 
Q 3428 1669 3622 1275 
L 4263 0 
L 3584 0 
L 2988 1197 
Q 2756 1666 2539 1819 
Q 2322 1972 1947 1972 
L 1259 1972 
L 1259 0 
L 628 0 
L 628 4666 
L 2053 4666 
Q 2853 4666 3247 4331 
Q 3641 3997 3641 3322 
Q 3641 2881 3436 2590 
Q 3231 2300 2841 2188 
z
M 1259 4147 
L 1259 2491 
L 2053 2491 
Q 2509 2491 2742 2702 
Q 2975 2913 2975 3322 
Q 2975 3731 2742 3939 
Q 2509 4147 2053 4147 
L 1259 4147 
z
" transform="scale(0.015625)"/>
      <path id="DejaVuSans-75" d="M 544 1381 
L 544 3500 
L 1119 3500 
L 1119 1403 
Q 1119 906 1312 657 
Q 1506 409 1894 409 
Q 2359 409 2629 706 
Q 2900 1003 2900 1516 
L 2900 3500 
L 3475 3500 
L 3475 0 
L 2900 0 
L 2900 538 
Q 2691 219 2414 64 
Q 2138 -91 1772 -91 
Q 1169 -91 856 284 
Q 544 659 544 1381 
z
M 1991 3584 
L 1991 3584 
z
" transform="scale(0.015625)"/>
     </defs>
     <use xlink:href="#DejaVuSans-28"/>
     <use xlink:href="#DejaVuSans-4b" x="39.013672"/>
     <use xlink:href="#DejaVuSans-65" x="99.589844"/>
     <use xlink:href="#DejaVuSans-79" x="161.113281"/>
     <use xlink:href="#DejaVuSans-77" x="220.292969"/>
     <use xlink:href="#DejaVuSans-6f" x="302.080078"/>
     <use xlink:href="#DejaVuSans-72" x="363.261719"/>
     <use xlink:href="#DejaVuSans-64" x="402.625"/>
     <use xlink:href="#DejaVuSans-20" x="466.101562"/>
     <use xlink:href="#DejaVuSans-52" x="497.888672"/>
     <use xlink:href="#DejaVuSans-75" x="562.871094"/>
     <use xlink:href="#DejaVuSans-6c" x="626.25"/>
     <use xlink:href="#DejaVuSans-65" x="654.033203"/>
     <use xlink:href="#DejaVuSans-73" x="715.556641"/>
     <use xlink:href="#DejaVuSans-29" x="767.65625"/>
    </g>
   </g>
   <g id="text_3">
    <!-- Detect PII/PHI -->
    <g style="fill: #333333" transform="translate(423.73137 59.143344) scale(0.1 -0.1)">
     <defs>
      <path id="DejaVuSans-44" d="M 1259 4147 
L 1259 519 
L 2022 519 
Q 2988 519 3436 956 
Q 3884 1394 3884 2338 
Q 3884 3275 3436 3711 
Q 2988 4147 2022 4147 
L 1259 4147 
z
M 628 4666 
L 1925 4666 
Q 3281 4666 3915 4102 
Q 4550 3538 4550 2338 
Q 4550 1131 3912 565 
Q 3275 0 1925 0 
L 628 0 
L 628 4666 
z
" transform="scale(0.015625)"/>
      <path id="DejaVuSans-63" d="M 3122 3366 
L 3122 2828 
Q 2878 2963 2633 3030 
Q 2388 3097 2138 3097 
Q 1578 3097 1268 2742 
Q 959 2388 959 1747 
Q 959 1106 1268 751 
Q 1578 397 2138 397 
Q 2388 397 2633 464 
Q 2878 531 3122 666 
L 3122 134 
Q 2881 22 2623 -34 
Q 2366 -91 2075 -91 
Q 1284 -91 818 406 
Q 353 903 353 1747 
Q 353 2603 823 3093 
Q 1294 3584 2113 3584 
Q 2378 3584 2631 3529 
Q 2884 3475 3122 3366 
z
" transform="scale(0.015625)"/>
      <path id="DejaVuSans-50" d="M 1259 4147 
L 1259 2394 
L 2053 2394 
Q 2494 2394 2734 2622 
Q 2975 2850 2975 3272 
Q 2975 3691 2734 3919 
Q 2494 4147 2053 4147 
L 1259 4147 
z
M 628 4666 
L 2053 4666 
Q 2838 4666 3239 4311 
Q 3641 3956 3641 3272 
Q 3641 2581 3239 2228 
Q 2838 1875 2053 1875 
L 1259 1875 
L 1259 0 
L 628 0 
L 628 4666 
z
" transform="scale(0.015625)"/>
      <path id="DejaVuSans-48" d="M 628 4666 
L 1259 4666 
L 1259 2753 
L 3553 2753 
L 3553 4666 
L 4184 4666 
L 4184 0 
L 3553 0 
L 3553 2222 
L 1259 2222 
L 1259 0 
L 628 0 
L 628 4666 
z
" transform="scale(0.015625)"/>
     </defs>
     <use xlink:href="#DejaVuSans-44"/>
     <use xlink:href="#DejaVuSans-65" x="77.001953"/>
     <use xlink:href="#DejaVuSans-74" x="138.525391"/>
     <use xlink:href="#DejaVuSans-65" x="177.734375"/>
     <use xlink:href="#DejaVuSans-63" x="239.257812"/>
     <use xlink:href="#DejaVuSans-74" x="294.238281"/>
     <use xlink:href="#DejaVuSans-20" x="333.447266"/>
     <use xlink:href="#DejaVuSans-50" x="365.234375"/>
     <use xlink:href="#DejaVuSans-49" x="425.537109"/>
     <use xlink:href="#DejaVuSans-49" x="455.029297"/>
     <use xlink:href="#DejaVuSans-2f" x="484.521484"/>
     <use xlink:href="#DejaVuSans-50" x="518.212891"/>
     <use xlink:href="#DejaVuSans-48" x="578.515625"/>
     <use xlink:href="#DejaVuSans-49" x="653.710938"/>
    </g>
    <!-- (Regex &amp; Dictionaries) -->
    <g style="fill: #333333" transform="translate(401.709495 70.341156) scale(0.1 -0.1)">
     <defs>
      <path id="DejaVuSans-67" d="M 2906 1791 
Q 2906 2416 2648 2759 
Q 2391 3103 1925 3103 
Q 1463 3103 1205 2759 
Q 947 2416 947 1791 
Q 947 1169 1205 825 
Q 1463 481 1925 481 
Q 2391 481 2648 825 
Q 2906 1169 2906 1791 
z
M 3481 434 
Q 3481 -459 3084 -895 
Q 2688 -1331 1869 -1331 
Q 1566 -1331 1297 -1286 
Q 1028 -1241 775 -1147 
L 775 -588 
Q 1028 -725 1275 -790 
Q 1522 -856 1778 -856 
Q 2344 -856 2625 -561 
Q 2906 -266 2906 331 
L 2906 616 
Q 2728 306 2450 153 
Q 2172 0 1784 0 
Q 1141 0 747 490 
Q 353 981 353 1791 
Q 353 2603 747 3093 
Q 1141 3584 1784 3584 
Q 2172 3584 2450 3431 
Q 2728 3278 2906 2969 
L 2906 3500 
L 3481 3500 
L 3481 434 
z
" transform="scale(0.015625)"/>
      <path id="DejaVuSans-78" d="M 3513 3500 
L 2247 1797 
L 3578 0 
L 2900 0 
L 1881 1375 
L 863 0 
L 184 0 
L 1544 1831 
L 300 3500 
L 978 3500 
L 1906 2253 
L 2834 3500 
L 3513 3500 
z
" transform="scale(0.015625)"/>
      <path id="DejaVuSans-26" d="M 1556 2509 
Q 1272 2256 1139 2004 
Q 1006 1753 1006 1478 
Q 1006 1022 1337 719 
Q 1669 416 2169 416 
Q 2466 416 2725 514 
Q 2984 613 3213 813 
L 1556 2509 
z
M 1997 2859 
L 3584 1234 
Q 3769 1513 3872 1830 
Q 3975 2147 3994 2503 
L 4575 2503 
Q 4538 2091 4375 1687 
Q 4213 1284 3922 891 
L 4794 0 
L 4006 0 
L 3559 459 
Q 3234 181 2878 45 
Q 2522 -91 2113 -91 
Q 1359 -91 881 339 
Q 403 769 403 1441 
Q 403 1841 612 2192 
Q 822 2544 1241 2853 
Q 1091 3050 1012 3245 
Q 934 3441 934 3628 
Q 934 4134 1281 4442 
Q 1628 4750 2203 4750 
Q 2463 4750 2720 4694 
Q 2978 4638 3244 4525 
L 3244 3956 
Q 2972 4103 2725 4179 
Q 2478 4256 2266 4256 
Q 1938 4256 1733 4082 
Q 1528 3909 1528 3634 
Q 1528 3475 1620 3314 
Q 1713 3153 1997 2859 
z
" transform="scale(0.015625)"/>
     </defs>
     <use xlink:href="#DejaVuSans-28"/>
     <use xlink:href="#DejaVuSans-52" x="39.013672"/>
     <use xlink:href="#DejaVuSans-65" x="103.996094"/>
     <use xlink:href="#DejaVuSans-67" x="165.519531"/>
     <use xlink:href="#DejaVuSans-65" x="228.996094"/>
     <use xlink:href="#DejaVuSans-78" x="288.769531"/>
     <use xlink:href="#DejaVuSans-20" x="347.949219"/>
     <use xlink:href="#DejaVuSans-26" x="379.736328"/>
     <use xlink:href="#DejaVuSans-20" x="457.714844"/>
     <use xlink:href="#DejaVuSans-44" x="489.501953"/>
     <use xlink:href="#DejaVuSans-69" x="566.503906"/>
     <use xlink:href="#DejaVuSans-63" x="594.287109"/>
     <use xlink:href="#DejaVuSans-74" x="649.267578"/>
     <use xlink:href="#DejaVuSans-69" x="688.476562"/>
     <use xlink:href="#DejaVuSans-6f" x="716.259766"/>
     <use xlink:href="#DejaVuSans-6e" x="777.441406"/>
     <use xlink:href="#DejaVuSans-61" x="840.820312"/>
     <use xlink:href="#DejaVuSans-72" x="902.099609"/>
     <use xlink:href="#DejaVuSans-69" x="943.212891"/>
     <use xlink:href="#DejaVuSans-65" x="970.996094"/>
     <use xlink:href="#DejaVuSans-73" x="1032.519531"/>
     <use xlink:href="#DejaVuSans-29" x="1084.619141"/>
    </g>
   </g>
   <g id="text_4">
    <!-- Confidence Gate -->
    <g style="fill: #333333" transform="translate(416.214183 136.759344) scale(0.1 -0.1)">
     <defs>
      <path id="DejaVuSans-47" d="M 3809 666 
L 3809 1919 
L 2778 1919 
L 2778 2438 
L 4434 2438 
L 4434 434 
Q 4069 175 3628 42 
Q 3188 -91 2688 -91 
Q 1594 -91 976 548 
Q 359 1188 359 2328 
Q 359 3472 976 4111 
Q 1594 4750 2688 4750 
Q 3144 4750 3555 4637 
Q 3966 4525 4313 4306 
L 4313 3634 
Q 3963 3931 3569 4081 
Q 3175 4231 2741 4231 
Q 1884 4231 1454 3753 
Q 1025 3275 1025 2328 
Q 1025 1384 1454 906 
Q 1884 428 2741 428 
Q 3075 428 3337 486 
Q 3600 544 3809 666 
z
" transform="scale(0.015625)"/>
     </defs>
     <use xlink:href="#DejaVuSans-43"/>
     <use xlink:href="#DejaVuSans-6f" x="69.824219"/>
     <use xlink:href="#DejaVuSans-6e" x="131.005859"/>
     <use xlink:href="#DejaVuSans-66" x="194.384766"/>
     <use xlink:href="#DejaVuSans-69" x="229.589844"/>
     <use xlink:href="#DejaVuSans-64" x="257.373047"/>
     <use xlink:href="#DejaVuSans-65" x="320.849609"/>
     <use xlink:href="#DejaVuSans-6e" x="382.373047"/>
     <use xlink:href="#DejaVuSans-63" x="445.751953"/>
     <use xlink:href="#DejaVuSans-65" x="500.732422"/>
     <use xlink:href="#DejaVuSans-20" x="562.255859"/>
     <use xlink:href="#DejaVuSans-47" x="594.042969"/>
     <use xlink:href="#DejaVuSans-61" x="671.533203"/>
     <use xlink:href="#DejaVuSans-74" x="732.8125"/>
     <use xlink:href="#DejaVuSans-65" x="772.021484"/>
    </g>
    <!-- (Threshold) -->
    <g style="fill: #333333" transform="translate(429.352464 147.957156) scale(0.1 -0.1)">
     <defs>
      <path id="DejaVuSans-54" d="M -19 4666 
L 3928 4666 
L 3928 4134 
L 2272 4134 
L 2272 0 
L 1638 0 
L 1638 4134 
L -19 4134 
L -19 4666 
z
" transform="scale(0.015625)"/>
      <path id="DejaVuSans-68" d="M 3513 2113 
L 3513 0 
L 2938 0 
L 2938 2094 
Q 2938 2591 2744 2837 
Q 2550 3084 2163 3084 
Q 1697 3084 1428 2787 
Q 1159 2491 1159 1978 
L 1159 0 
L 581 0 
L 581 4863 
L 1159 4863 
L 1159 2956 
Q 1366 3272 1645 3428 
Q 1925 3584 2291 3584 
Q 2894 3584 3203 3211 
Q 3513 2838 3513 2113 
z
" transform="scale(0.015625)"/>
     </defs>
     <use xlink:href="#DejaVuSans-28"/>
     <use xlink:href="#DejaVuSans-54" x="39.013672"/>
     <use xlink:href="#DejaVuSans-68" x="100.097656"/>
     <use xlink:href="#DejaVuSans-72" x="163.476562"/>
     <use xlink:href="#DejaVuSans-65" x="202.339844"/>
     <use xlink:href="#DejaVuSans-73" x="263.863281"/>
     <use xlink:href="#DejaVuSans-68" x="315.962891"/>
     <use xlink:href="#DejaVuSans-6f" x="379.341797"/>
     <use xlink:href="#DejaVuSans-6c" x="440.523438"/>
     <use xlink:href="#DejaVuSans-64" x="468.306641"/>
     <use xlink:href="#DejaVuSans-29" x="531.783203"/>
    </g>
   </g>
   <g id="text_5">
    <!-- HITL Review -->
    <g style="fill: #333333" transform="translate(324.373017 214.375344) scale(0.1 -0.1)">
     <defs>
      <path id="DejaVuSans-4c" d="M 628 4666 
L 1259 4666 
L 1259 531 
L 3531 531 
L 3531 0 
L 628 0 
L 628 4666 
z
" transform="scale(0.015625)"/>
      <path id="DejaVuSans-76" d="M 191 3500 
L 800 3500 
L 1894 563 
L 2988 3500 
L 3597 3500 
L 2284 0 
L 1503 0 
L 191 3500 
z
" transform="scale(0.015625)"/>
     </defs>
     <use xlink:href="#DejaVuSans-48"/>
     <use xlink:href="#DejaVuSans-49" x="75.195312"/>
     <use xlink:href="#DejaVuSans-54" x="104.6875"/>
     <use xlink:href="#DejaVuSans-4c" x="165.771484"/>
     <use xlink:href="#DejaVuSans-20" x="221.484375"/>
     <use xlink:href="#DejaVuSans-52" x="253.271484"/>
     <use xlink:href="#DejaVuSans-65" x="318.253906"/>
     <use xlink:href="#DejaVuSans-76" x="379.777344"/>
     <use xlink:href="#DejaVuSans-69" x="438.957031"/>
     <use xlink:href="#DejaVuSans-65" x="466.740234"/>
     <use xlink:href="#DejaVuSans-77" x="528.263672"/>
    </g>
    <!-- (UiPath Form) -->
    <g style="fill: #333333" transform="translate(320.762861 225.573156) scale(0.1 -0.1)">
     <defs>
      <path id="DejaVuSans-55" d="M 556 4666 
L 1191 4666 
L 1191 1831 
Q 1191 1081 1462 751 
Q 1734 422 2344 422 
Q 2950 422 3222 751 
Q 3494 1081 3494 1831 
L 3494 4666 
L 4128 4666 
L 4128 1753 
Q 4128 841 3676 375 
Q 3225 -91 2344 -91 
Q 1459 -91 1007 375 
Q 556 841 556 1753 
L 556 4666 
z
" transform="scale(0.015625)"/>
     </defs>
     <use xlink:href="#DejaVuSans-28"/>
     <use xlink:href="#DejaVuSans-55" x="39.013672"/>
     <use xlink:href="#DejaVuSans-69" x="112.207031"/>
     <use xlink:href="#DejaVuSans-50" x="139.990234"/>
     <use xlink:href="#DejaVuSans-61" x="195.792969"/>
     <use xlink:href="#DejaVuSans-74" x="257.072266"/>
     <use xlink:href="#DejaVuSans-68" x="296.28125"/>
     <use xlink:href="#DejaVuSans-20" x="359.660156"/>
     <use xlink:href="#DejaVuSans-46" x="391.447266"/>
     <use xlink:href="#DejaVuSans-6f" x="445.341797"/>
     <use xlink:href="#DejaVuSans-72" x="506.523438"/>
     <use xlink:href="#DejaVuSans-6d" x="545.886719"/>
     <use xlink:href="#DejaVuSans-29" x="643.298828"/>
    </g>
   </g>
   <g id="text_6">
    <!-- Auto Path -->
    <g style="fill: #333333" transform="translate(536.727224 219.97425) scale(0.1 -0.1)">
     <defs>
      <path id="DejaVuSans-41" d="M 2188 4044 
L 1331 1722 
L 3047 1722 
L 2188 4044 
z
M 1831 4666 
L 2547 4666 
L 4325 0 
L 3669 0 
L 3244 1197 
L 1141 1197 
L 716 0 
L 50 0 
L 1831 4666 
z
" transform="scale(0.015625)"/>
     </defs>
     <use xlink:href="#DejaVuSans-41"/>
     <use xlink:href="#DejaVuSans-75" x="68.408203"/>
     <use xlink:href="#DejaVuSans-74" x="131.787109"/>
     <use xlink:href="#DejaVuSans-6f" x="170.996094"/>
     <use xlink:href="#DejaVuSans-20" x="232.177734"/>
     <use xlink:href="#DejaVuSans-50" x="263.964844"/>
     <use xlink:href="#DejaVuSans-61" x="319.767578"/>
     <use xlink:href="#DejaVuSans-74" x="381.046875"/>
     <use xlink:href="#DejaVuSans-68" x="420.255859"/>
    </g>
   </g>
   <g id="text_7">
    <!-- Redact PDF -->
    <g style="fill: #333333" transform="translate(429.289183 297.59025) scale(0.1 -0.1)">
     <use xlink:href="#DejaVuSans-52"/>
     <use xlink:href="#DejaVuSans-65" x="64.982422"/>
     <use xlink:href="#DejaVuSans-64" x="126.505859"/>
     <use xlink:href="#DejaVuSans-61" x="189.982422"/>
     <use xlink:href="#DejaVuSans-63" x="251.261719"/>
     <use xlink:href="#DejaVuSans-74" x="306.242188"/>
     <use xlink:href="#DejaVuSans-20" x="345.451172"/>
     <use xlink:href="#DejaVuSans-50" x="377.238281"/>
     <use xlink:href="#DejaVuSans-44" x="437.541016"/>
     <use xlink:href="#DejaVuSans-46" x="514.542969"/>
    </g>
   </g>
   <g id="text_8">
    <!-- Outputs -->
    <g style="fill: #333333" transform="translate(437.919651 348.707531) scale(0.1 -0.1)">
     <defs>
      <path id="DejaVuSans-4f" d="M 2522 4238 
Q 1834 4238 1429 3725 
Q 1025 3213 1025 2328 
Q 1025 1447 1429 934 
Q 1834 422 2522 422 
Q 3209 422 3611 934 
Q 4013 1447 4013 2328 
Q 4013 3213 3611 3725 
Q 3209 4238 2522 4238 
z
M 2522 4750 
Q 3503 4750 4090 4092 
Q 4678 3434 4678 2328 
Q 4678 1225 4090 567 
Q 3503 -91 2522 -91 
Q 1538 -91 948 565 
Q 359 1222 359 2328 
Q 359 3434 948 4092 
Q 1538 4750 2522 4750 
z
" transform="scale(0.015625)"/>
      <path id="DejaVuSans-70" d="M 1159 525 
L 1159 -1331 
L 581 -1331 
L 581 3500 
L 1159 3500 
L 1159 2969 
Q 1341 3281 1617 3432 
Q 1894 3584 2278 3584 
Q 2916 3584 3314 3078 
Q 3713 2572 3713 1747 
Q 3713 922 3314 415 
Q 2916 -91 2278 -91 
Q 1894 -91 1617 61 
Q 1341 213 1159 525 
z
M 3116 1747 
Q 3116 2381 2855 2742 
Q 2594 3103 2138 3103 
Q 1681 3103 1420 2742 
Q 1159 2381 1159 1747 
Q 1159 1113 1420 752 
Q 1681 391 2138 391 
Q 2594 391 2855 752 
Q 3116 1113 3116 1747 
z
" transform="scale(0.015625)"/>
     </defs>
     <use xlink:href="#DejaVuSans-4f"/>
     <use xlink:href="#DejaVuSans-75" x="78.710938"/>
     <use xlink:href="#DejaVuSans-74" x="142.089844"/>
     <use xlink:href="#DejaVuSans-70" x="181.298828"/>
     <use xlink:href="#DejaVuSans-75" x="244.775391"/>
     <use xlink:href="#DejaVuSans-74" x="308.154297"/>
     <use xlink:href="#DejaVuSans-73" x="347.363281"/>
    </g>
    <!-- - Redacted PDFs -->
    <g style="fill: #333333" transform="translate(417.040745 359.905344) scale(0.1 -0.1)">
     <defs>
      <path id="DejaVuSans-2d" d="M 313 2009 
L 1997 2009 
L 1997 1497 
L 313 1497 
L 313 2009 
z
" transform="scale(0.015625)"/>
     </defs>
     <use xlink:href="#DejaVuSans-2d"/>
     <use xlink:href="#DejaVuSans-20" x="36.083984"/>
     <use xlink:href="#DejaVuSans-52" x="67.871094"/>
     <use xlink:href="#DejaVuSans-65" x="132.853516"/>
     <use xlink:href="#DejaVuSans-64" x="194.376953"/>
     <use xlink:href="#DejaVuSans-61" x="257.853516"/>
     <use xlink:href="#DejaVuSans-63" x="319.132812"/>
     <use xlink:href="#DejaVuSans-74" x="374.113281"/>
     <use xlink:href="#DejaVuSans-65" x="413.322266"/>
     <use xlink:href="#DejaVuSans-64" x="474.845703"/>
     <use xlink:href="#DejaVuSans-20" x="538.322266"/>
     <use xlink:href="#DejaVuSans-50" x="570.109375"/>
     <use xlink:href="#DejaVuSans-44" x="630.412109"/>
     <use xlink:href="#DejaVuSans-46" x="707.414062"/>
     <use xlink:href="#DejaVuSans-73" x="764.933594"/>
    </g>
    <!-- - Excel Registry -->
    <g style="fill: #333333" transform="translate(419.195433 371.103156) scale(0.1 -0.1)">
     <use xlink:href="#DejaVuSans-2d"/>
     <use xlink:href="#DejaVuSans-20" x="36.083984"/>
     <use xlink:href="#DejaVuSans-45" x="67.871094"/>
     <use xlink:href="#DejaVuSans-78" x="131.054688"/>
     <use xlink:href="#DejaVuSans-63" x="188.484375"/>
     <use xlink:href="#DejaVuSans-65" x="243.464844"/>
     <use xlink:href="#DejaVuSans-6c" x="304.988281"/>
     <use xlink:href="#DejaVuSans-20" x="332.771484"/>
     <use xlink:href="#DejaVuSans-52" x="364.558594"/>
     <use xlink:href="#DejaVuSans-65" x="429.541016"/>
     <use xlink:href="#DejaVuSans-67" x="491.064453"/>
     <use xlink:href="#DejaVuSans-69" x="554.541016"/>
     <use xlink:href="#DejaVuSans-73" x="582.324219"/>
     <use xlink:href="#DejaVuSans-74" x="634.423828"/>
     <use xlink:href="#DejaVuSans-72" x="673.632812"/>
     <use xlink:href="#DejaVuSans-79" x="714.746094"/>
    </g>
    <!-- - JSONL Audit -->
    <g style="fill: #333333" transform="translate(424.686058 382.300969) scale(0.1 -0.1)">
     <defs>
      <path id="DejaVuSans-4a" d="M 628 4666 
L 1259 4666 
L 1259 325 
Q 1259 -519 939 -900 
Q 619 -1281 -91 -1281 
L -331 -1281 
L -331 -750 
L -134 -750 
Q 284 -750 456 -515 
Q 628 -281 628 325 
L 628 4666 
z
" transform="scale(0.015625)"/>
      <path id="DejaVuSans-53" d="M 3425 4513 
L 3425 3897 
Q 3066 4069 2747 4153 
Q 2428 4238 2131 4238 
Q 1616 4238 1336 4038 
Q 1056 3838 1056 3469 
Q 1056 3159 1242 3001 
Q 1428 2844 1947 2747 
L 2328 2669 
Q 3034 2534 3370 2195 
Q 3706 1856 3706 1288 
Q 3706 609 3251 259 
Q 2797 -91 1919 -91 
Q 1588 -91 1214 -16 
Q 841 59 441 206 
L 441 856 
Q 825 641 1194 531 
Q 1563 422 1919 422 
Q 2459 422 2753 634 
Q 3047 847 3047 1241 
Q 3047 1584 2836 1778 
Q 2625 1972 2144 2069 
L 1759 2144 
Q 1053 2284 737 2584 
Q 422 2884 422 3419 
Q 422 4038 858 4394 
Q 1294 4750 2059 4750 
Q 2388 4750 2728 4690 
Q 3069 4631 3425 4513 
z
" transform="scale(0.015625)"/>
      <path id="DejaVuSans-4e" d="M 628 4666 
L 1478 4666 
L 3547 763 
L 3547 4666 
L 4159 4666 
L 4159 0 
L 3309 0 
L 1241 3903 
L 1241 0 
L 628 0 
L 628 4666 
z
" transform="scale(0.015625)"/>
     </defs>
     <use xlink:href="#DejaVuSans-2d"/>
     <use xlink:href="#DejaVuSans-20" x="36.083984"/>
     <use xlink:href="#DejaVuSans-4a" x="67.871094"/>
     <use xlink:href="#DejaVuSans-53" x="97.363281"/>
     <use xlink:href="#DejaVuSans-4f" x="160.839844"/>
     <use xlink:href="#DejaVuSans-4e" x="239.550781"/>
     <use xlink:href="#DejaVuSans-4c" x="314.355469"/>
     <use xlink:href="#DejaVuSans-20" x="370.068359"/>
     <use xlink:href="#DejaVuSans-41" x="401.855469"/>
     <use xlink:href="#DejaVuSans-75" x="470.263672"/>
     <use xlink:href="#DejaVuSans-64" x="533.642578"/>
     <use xlink:href="#DejaVuSans-69" x="597.119141"/>
     <use xlink:href="#DejaVuSans-74" x="624.902344"/>
    </g>
   </g>
   <g id="text_9">
    <!-- Configs &amp; Patterns -->
    <g style="fill: #333333" transform="translate(51.021274 219.226344) scale(0.1 -0.1)">
     <use xlink:href="#DejaVuSans-43"/>
     <use xlink:href="#DejaVuSans-6f" x="69.824219"/>
     <use xlink:href="#DejaVuSans-6e" x="131.005859"/>
     <use xlink:href="#DejaVuSans-66" x="194.384766"/>
     <use xlink:href="#DejaVuSans-69" x="229.589844"/>
     <use xlink:href="#DejaVuSans-67" x="257.373047"/>
     <use xlink:href="#DejaVuSans-73" x="320.849609"/>
     <use xlink:href="#DejaVuSans-20" x="372.949219"/>
     <use xlink:href="#DejaVuSans-26" x="404.736328"/>
     <use xlink:href="#DejaVuSans-20" x="482.714844"/>
     <use xlink:href="#DejaVuSans-50" x="514.501953"/>
     <use xlink:href="#DejaVuSans-61" x="570.304688"/>
     <use xlink:href="#DejaVuSans-74" x="631.583984"/>
     <use xlink:href="#DejaVuSans-74" x="670.792969"/>
     <use xlink:href="#DejaVuSans-65" x="710.001953"/>
     <use xlink:href="#DejaVuSans-72" x="771.525391"/>
     <use xlink:href="#DejaVuSans-6e" x="810.888672"/>
     <use xlink:href="#DejaVuSans-73" x="874.267578"/>
    </g>
    <!-- (ref/*) -->
    <g style="fill: #333333" transform="translate(82.472837 230.424156) scale(0.1 -0.1)">
     <defs>
      <path id="DejaVuSans-2a" d="M 3009 3897 
L 1888 3291 
L 3009 2681 
L 2828 2375 
L 1778 3009 
L 1778 1831 
L 1422 1831 
L 1422 3009 
L 372 2375 
L 191 2681 
L 1313 3291 
L 191 3897 
L 372 4206 
L 1422 3572 
L 1422 4750 
L 1778 4750 
L 1778 3572 
L 2828 4206 
L 3009 3897 
z
" transform="scale(0.015625)"/>
     </defs>
     <use xlink:href="#DejaVuSans-28"/>
     <use xlink:href="#DejaVuSans-72" x="39.013672"/>
     <use xlink:href="#DejaVuSans-65" x="77.876953"/>
     <use xlink:href="#DejaVuSans-66" x="139.400391"/>
     <use xlink:href="#DejaVuSans-2f" x="174.605469"/>
     <use xlink:href="#DejaVuSans-2a" x="208.296875"/>
     <use xlink:href="#DejaVuSans-29" x="258.296875"/>
    </g>
   </g>
   <g id="text_10">
    <!-- Logs &amp; Metrics -->
    <g style="fill: #333333" transform="translate(60.57518 296.842344) scale(0.1 -0.1)">
     <defs>
      <path id="DejaVuSans-4d" d="M 628 4666 
L 1569 4666 
L 2759 1491 
L 3956 4666 
L 4897 4666 
L 4897 0 
L 4281 0 
L 4281 4097 
L 3078 897 
L 2444 897 
L 1241 4097 
L 1241 0 
L 628 0 
L 628 4666 
z
" transform="scale(0.015625)"/>
     </defs>
     <use xlink:href="#DejaVuSans-4c"/>
     <use xlink:href="#DejaVuSans-6f" x="53.962891"/>
     <use xlink:href="#DejaVuSans-67" x="115.144531"/>
     <use xlink:href="#DejaVuSans-73" x="178.621094"/>
     <use xlink:href="#DejaVuSans-20" x="230.720703"/>
     <use xlink:href="#DejaVuSans-26" x="262.507812"/>
     <use xlink:href="#DejaVuSans-20" x="340.486328"/>
     <use xlink:href="#DejaVuSans-4d" x="372.273438"/>
     <use xlink:href="#DejaVuSans-65" x="458.552734"/>
     <use xlink:href="#DejaVuSans-74" x="520.076172"/>
     <use xlink:href="#DejaVuSans-72" x="559.285156"/>
     <use xlink:href="#DejaVuSans-69" x="600.398438"/>
     <use xlink:href="#DejaVuSans-63" x="628.181641"/>
     <use xlink:href="#DejaVuSans-73" x="683.162109"/>
    </g>
    <!-- (logs/*, metrics) -->
    <g style="fill: #333333" transform="translate(57.141587 308.040156) scale(0.1 -0.1)">
     <defs>
      <path id="DejaVuSans-2c" d="M 750 794 
L 1409 794 
L 1409 256 
L 897 -744 
L 494 -744 
L 750 256 
L 750 794 
z
" transform="scale(0.015625)"/>
     </defs>
     <use xlink:href="#DejaVuSans-28"/>
     <use xlink:href="#DejaVuSans-6c" x="39.013672"/>
     <use xlink:href="#DejaVuSans-6f" x="66.796875"/>
     <use xlink:href="#DejaVuSans-67" x="127.978516"/>
     <use xlink:href="#DejaVuSans-73" x="191.455078"/>
     <use xlink:href="#DejaVuSans-2f" x="243.554688"/>
     <use xlink:href="#DejaVuSans-2a" x="277.246094"/>
     <use xlink:href="#DejaVuSans-2c" x="327.246094"/>
     <use xlink:href="#DejaVuSans-20" x="359.033203"/>
     <use xlink:href="#DejaVuSans-6d" x="390.820312"/>
     <use xlink:href="#DejaVuSans-65" x="488.232422"/>
     <use xlink:href="#DejaVuSans-74" x="549.755859"/>
     <use xlink:href="#DejaVuSans-72" x="588.964844"/>
     <use xlink:href="#DejaVuSans-69" x="630.078125"/>
     <use xlink:href="#DejaVuSans-63" x="657.861328"/>
     <use xlink:href="#DejaVuSans-73" x="712.841797"/>
     <use xlink:href="#DejaVuSans-29" x="764.941406"/>
    </g>
   </g>
   <g id="text_11">
    <!-- Notify -->
    <g style="fill: #333333" transform="translate(600.209519 359.905344) scale(0.1 -0.1)">
     <use xlink:href="#DejaVuSans-4e"/>
     <use xlink:href="#DejaVuSans-6f" x="74.804688"/>
     <use xlink:href="#DejaVuSans-74" x="135.986328"/>
     <use xlink:href="#DejaVuSans-69" x="175.195312"/>
     <use xlink:href="#DejaVuSans-66" x="202.978516"/>
     <use xlink:href="#DejaVuSans-79" x="236.433594"/>
    </g>
    <!-- (Email) -->
    <g style="fill: #333333" transform="translate(597.217332 371.103156) scale(0.1 -0.1)">
     <use xlink:href="#DejaVuSans-28"/>
     <use xlink:href="#DejaVuSans-45" x="39.013672"/>
     <use xlink:href="#DejaVuSans-6d" x="102.197266"/>
     <use xlink:href="#DejaVuSans-61" x="199.609375"/>
     <use xlink:href="#DejaVuSans-69" x="260.888672"/>
     <use xlink:href="#DejaVuSans-6c" x="288.671875"/>
     <use xlink:href="#DejaVuSans-29" x="316.455078"/>
    </g>
   </g>
   <g id="text_12">
    <!-- Secure Document Redaction Bot – High-Level Architecture -->
    <g style="fill: #333333" transform="translate(32.953846 17.837812) scale(0.14 -0.14)">
     <defs>
      <path id="DejaVuSans-42" d="M 1259 2228 
L 1259 519 
L 2272 519 
Q 2781 519 3026 730 
Q 3272 941 3272 1375 
Q 3272 1813 3026 2020 
Q 2781 2228 2272 2228 
L 1259 2228 
z
M 1259 4147 
L 1259 2741 
L 2194 2741 
Q 2656 2741 2882 2914 
Q 3109 3088 3109 3444 
Q 3109 3797 2882 3972 
Q 2656 4147 2194 4147 
L 1259 4147 
z
M 628 4666 
L 2241 4666 
Q 2963 4666 3353 4366 
Q 3744 4066 3744 3513 
Q 3744 3084 3544 2831 
Q 3344 2578 2956 2516 
Q 3422 2416 3680 2098 
Q 3938 1781 3938 1306 
Q 3938 681 3513 340 
Q 3088 0 2303 0 
L 628 0 
L 628 4666 
z
" transform="scale(0.015625)"/>
      <path id="DejaVuSans-2013" d="M 313 1978 
L 2888 1978 
L 2888 1528 
L 313 1528 
L 313 1978 
z
" transform="scale(0.015625)"/>
     </defs>
     <use xlink:href="#DejaVuSans-53"/>
     <use xlink:href="#DejaVuSans-65" x="63.476562"/>
     <use xlink:href="#DejaVuSans-63" x="125"/>
     <use xlink:href="#DejaVuSans-75" x="179.980469"/>
     <use xlink:href="#DejaVuSans-72" x="243.359375"/>
     <use xlink:href="#DejaVuSans-65" x="282.222656"/>
     <use xlink:href="#DejaVuSans-20" x="343.746094"/>
     <use xlink:href="#DejaVuSans-44" x="375.533203"/>
     <use xlink:href="#DejaVuSans-6f" x="452.535156"/>
     <use xlink:href="#DejaVuSans-63" x="513.716797"/>
     <use xlink:href="#DejaVuSans-75" x="568.697266"/>
     <use xlink:href="#DejaVuSans-6d" x="632.076172"/>
     <use xlink:href="#DejaVuSans-65" x="729.488281"/>
     <use xlink:href="#DejaVuSans-6e" x="791.011719"/>
     <use xlink:href="#DejaVuSans-74" x="854.390625"/>
     <use xlink:href="#DejaVuSans-20" x="893.599609"/>
     <use xlink:href="#DejaVuSans-52" x="925.386719"/>
     <use xlink:href="#DejaVuSans-65" x="990.369141"/>
     <use xlink:href="#DejaVuSans-64" x="1051.892578"/>
     <use xlink:href="#DejaVuSans-61" x="1115.369141"/>
     <use xlink:href="#DejaVuSans-63" x="1176.648438"/>
     <use xlink:href="#DejaVuSans-74" x="1231.628906"/>
     <use xlink:href="#DejaVuSans-69" x="1270.837891"/>
     <use xlink:href="#DejaVuSans-6f" x="1298.621094"/>
     <use xlink:href="#DejaVuSans-6e" x="1359.802734"/>
     <use xlink:href="#DejaVuSans-20" x="1423.181641"/>
     <use xlink:href="#DejaVuSans-42" x="1454.96875"/>
     <use xlink:href="#DejaVuSans-6f" x="1523.572266"/>
     <use xlink:href="#DejaVuSans-74" x="1584.753906"/>
     <use xlink:href="#DejaVuSans-20" x="1623.962891"/>
     <use xlink:href="#DejaVuSans-2013" x="1655.75"/>
     <use xlink:href="#DejaVuSans-20" x="1705.75"/>
     <use xlink:href="#DejaVuSans-48" x="1737.537109"/>
     <use xlink:href="#DejaVuSans-69" x="1812.732422"/>
     <use xlink:href="#DejaVuSans-67" x="1840.515625"/>
     <use xlink:href="#DejaVuSans-68" x="1903.992188"/>
     <use xlink:href="#DejaVuSans-2d" x="1967.371094"/>
     <use xlink:href="#DejaVuSans-4c" x="2003.455078"/>
     <use xlink:href="#DejaVuSans-65" x="2057.417969"/>
     <use xlink:href="#DejaVuSans-76" x="2118.941406"/>
     <use xlink:href="#DejaVuSans-65" x="2178.121094"/>
     <use xlink:href="#DejaVuSans-6c" x="2239.644531"/>
     <use xlink:href="#DejaVuSans-20" x="2267.427734"/>
     <use xlink:href="#DejaVuSans-41" x="2299.214844"/>
     <use xlink:href="#DejaVuSans-72" x="2367.623047"/>
     <use xlink:href="#DejaVuSans-63" x="2406.486328"/>
     <use xlink:href="#DejaVuSans-68" x="2461.466797"/>
     <use xlink:href="#DejaVuSans-69" x="2524.845703"/>
     <use xlink:href="#DejaVuSans-74" x="2552.628906"/>
     <use xlink:href="#DejaVuSans-65" x="2591.837891"/>
     <use xlink:href="#DejaVuSans-63" x="2653.361328"/>
     <use xlink:href="#DejaVuSans-74" x="2708.341797"/>
     <use xlink:href="#DejaVuSans-75" x="2747.550781"/>
     <use xlink:href="#DejaVuSans-72" x="2810.929688"/>
     <use xlink:href="#DejaVuSans-65" x="2849.792969"/>
    </g>
   </g>
  </g>
 </g>
 <defs>
  <clipPath id="pe7b502fdf8">
   <rect x="7.2" y="13.472875" width="669.6" height="388.08"/>
  </clipPath>
 </defs>
</svg>
